<mxfile host="app.diagrams.net" modified="2022-05-20T15:49:32.475Z" agent="5.0 (Macintosh; Intel Mac OS X 10_15_7) AppleWebKit/537.36 (KHTML, like Gecko) Chrome/101.0.4951.64 Safari/537.36" etag="i-Mi_gUPwV7Hiz3QJCse" version="18.0.6" type="github">
  <diagram id="BvB2ZkXdC71iAJK1aNnM" name="Page-1">
    <mxGraphModel dx="5270" dy="2136" grid="1" gridSize="10" guides="1" tooltips="1" connect="1" arrows="1" fold="1" page="1" pageScale="1" pageWidth="850" pageHeight="1100" math="0" shadow="0">
      <root>
        <mxCell id="0" />
        <mxCell id="1" parent="0" />
        <mxCell id="70C57ISuy-zKLvvFZMOv-161" value="In use" style="rounded=1;whiteSpace=wrap;html=1;dashed=1;strokeWidth=2;perimeterSpacing=1;arcSize=4;fillColor=#f8cecc;verticalAlign=top;spacingTop=7;strokeColor=none;opacity=40;" vertex="1" parent="1">
          <mxGeometry x="-390" y="670" width="300" height="248" as="geometry" />
        </mxCell>
        <mxCell id="70C57ISuy-zKLvvFZMOv-160" value="Abandoned" style="rounded=1;whiteSpace=wrap;html=1;dashed=1;strokeWidth=2;perimeterSpacing=1;arcSize=4;fillColor=#dae8fc;verticalAlign=top;spacingTop=7;strokeColor=none;opacity=40;" vertex="1" parent="1">
          <mxGeometry x="-760" y="670" width="300" height="248" as="geometry" />
        </mxCell>
        <mxCell id="70C57ISuy-zKLvvFZMOv-137" value="MongoDB" style="rounded=1;whiteSpace=wrap;html=1;dashed=1;strokeWidth=2;perimeterSpacing=1;arcSize=4;fillColor=#f8cecc;verticalAlign=bottom;spacingBottom=12;strokeColor=none;opacity=40;" vertex="1" parent="1">
          <mxGeometry x="30" y="1000" width="390" height="780" as="geometry" />
        </mxCell>
        <mxCell id="70C57ISuy-zKLvvFZMOv-138" value="Neo4J" style="rounded=1;whiteSpace=wrap;html=1;dashed=1;strokeWidth=2;perimeterSpacing=1;arcSize=4;fillColor=#dae8fc;verticalAlign=top;spacingTop=7;strokeColor=none;opacity=40;" vertex="1" parent="1">
          <mxGeometry x="51" y="750" width="768" height="520" as="geometry" />
        </mxCell>
        <mxCell id="70C57ISuy-zKLvvFZMOv-143" style="edgeStyle=orthogonalEdgeStyle;rounded=0;orthogonalLoop=1;jettySize=auto;html=1;startArrow=none;startFill=0;" edge="1" parent="1" source="70C57ISuy-zKLvvFZMOv-4" target="70C57ISuy-zKLvvFZMOv-141">
          <mxGeometry relative="1" as="geometry">
            <Array as="points">
              <mxPoint x="660" y="1110" />
            </Array>
          </mxGeometry>
        </mxCell>
        <mxCell id="70C57ISuy-zKLvvFZMOv-145" style="edgeStyle=orthogonalEdgeStyle;rounded=0;orthogonalLoop=1;jettySize=auto;html=1;startArrow=none;startFill=0;" edge="1" parent="1" source="70C57ISuy-zKLvvFZMOv-4" target="70C57ISuy-zKLvvFZMOv-142">
          <mxGeometry relative="1" as="geometry">
            <Array as="points">
              <mxPoint x="195" y="980" />
              <mxPoint x="660" y="980" />
            </Array>
          </mxGeometry>
        </mxCell>
        <mxCell id="70C57ISuy-zKLvvFZMOv-147" style="edgeStyle=orthogonalEdgeStyle;rounded=0;orthogonalLoop=1;jettySize=auto;html=1;startArrow=none;startFill=0;" edge="1" parent="1" source="70C57ISuy-zKLvvFZMOv-4" target="70C57ISuy-zKLvvFZMOv-140">
          <mxGeometry relative="1" as="geometry">
            <Array as="points">
              <mxPoint x="660" y="1131" />
            </Array>
          </mxGeometry>
        </mxCell>
        <mxCell id="70C57ISuy-zKLvvFZMOv-4" value="User / users" style="swimlane;fontStyle=0;childLayout=stackLayout;horizontal=1;startSize=26;fillColor=none;horizontalStack=0;resizeParent=1;resizeParentMax=0;resizeLast=0;collapsible=1;marginBottom=0;" vertex="1" parent="1">
          <mxGeometry x="80" y="1040" width="230.67" height="182" as="geometry" />
        </mxCell>
        <mxCell id="70C57ISuy-zKLvvFZMOv-5" value="+ _id: ObjectID" style="text;strokeColor=none;fillColor=none;align=left;verticalAlign=top;spacingLeft=4;spacingRight=4;overflow=hidden;rotatable=0;points=[[0,0.5],[1,0.5]];portConstraint=eastwest;" vertex="1" parent="70C57ISuy-zKLvvFZMOv-4">
          <mxGeometry y="26" width="230.67" height="26" as="geometry" />
        </mxCell>
        <mxCell id="70C57ISuy-zKLvvFZMOv-6" value="+ uniqueName: string" style="text;strokeColor=none;fillColor=none;align=left;verticalAlign=top;spacingLeft=4;spacingRight=4;overflow=hidden;rotatable=0;points=[[0,0.5],[1,0.5]];portConstraint=eastwest;" vertex="1" parent="70C57ISuy-zKLvvFZMOv-4">
          <mxGeometry y="52" width="230.67" height="26" as="geometry" />
        </mxCell>
        <mxCell id="70C57ISuy-zKLvvFZMOv-119" value="+ firstName: string" style="text;strokeColor=none;fillColor=none;align=left;verticalAlign=top;spacingLeft=4;spacingRight=4;overflow=hidden;rotatable=0;points=[[0,0.5],[1,0.5]];portConstraint=eastwest;" vertex="1" parent="70C57ISuy-zKLvvFZMOv-4">
          <mxGeometry y="78" width="230.67" height="26" as="geometry" />
        </mxCell>
        <mxCell id="70C57ISuy-zKLvvFZMOv-120" value="+ lastName: string" style="text;strokeColor=none;fillColor=none;align=left;verticalAlign=top;spacingLeft=4;spacingRight=4;overflow=hidden;rotatable=0;points=[[0,0.5],[1,0.5]];portConstraint=eastwest;" vertex="1" parent="70C57ISuy-zKLvvFZMOv-4">
          <mxGeometry y="104" width="230.67" height="26" as="geometry" />
        </mxCell>
        <mxCell id="70C57ISuy-zKLvvFZMOv-7" value="+ email: string" style="text;strokeColor=none;fillColor=none;align=left;verticalAlign=top;spacingLeft=4;spacingRight=4;overflow=hidden;rotatable=0;points=[[0,0.5],[1,0.5]];portConstraint=eastwest;" vertex="1" parent="70C57ISuy-zKLvvFZMOv-4">
          <mxGeometry y="130" width="230.67" height="26" as="geometry" />
        </mxCell>
        <mxCell id="70C57ISuy-zKLvvFZMOv-8" value="+ password: string" style="text;strokeColor=none;fillColor=none;align=left;verticalAlign=top;spacingLeft=4;spacingRight=4;overflow=hidden;rotatable=0;points=[[0,0.5],[1,0.5]];portConstraint=eastwest;" vertex="1" parent="70C57ISuy-zKLvvFZMOv-4">
          <mxGeometry y="156" width="230.67" height="26" as="geometry" />
        </mxCell>
        <mxCell id="70C57ISuy-zKLvvFZMOv-18" value="&lt;b&gt;Entity Relationship Diagram&lt;/b&gt;" style="text;html=1;strokeColor=none;fillColor=none;align=left;verticalAlign=middle;whiteSpace=wrap;rounded=0;" vertex="1" parent="1">
          <mxGeometry x="34" y="674" width="240" height="30" as="geometry" />
        </mxCell>
        <mxCell id="70C57ISuy-zKLvvFZMOv-26" value="analytics" style="swimlane;fontStyle=0;childLayout=stackLayout;horizontal=1;startSize=26;fillColor=none;horizontalStack=0;resizeParent=1;resizeParentMax=0;resizeLast=0;collapsible=1;marginBottom=0;" vertex="1" parent="1">
          <mxGeometry x="80.67" y="1310" width="230" height="416" as="geometry" />
        </mxCell>
        <mxCell id="70C57ISuy-zKLvvFZMOv-27" value="+ _id: ObjectID" style="text;strokeColor=none;fillColor=none;align=left;verticalAlign=top;spacingLeft=4;spacingRight=4;overflow=hidden;rotatable=0;points=[[0,0.5],[1,0.5]];portConstraint=eastwest;" vertex="1" parent="70C57ISuy-zKLvvFZMOv-26">
          <mxGeometry y="26" width="230" height="26" as="geometry" />
        </mxCell>
        <mxCell id="70C57ISuy-zKLvvFZMOv-28" value="+ user_id: ObjectID" style="text;strokeColor=none;fillColor=none;align=left;verticalAlign=top;spacingLeft=4;spacingRight=4;overflow=hidden;rotatable=0;points=[[0,0.5],[1,0.5]];portConstraint=eastwest;" vertex="1" parent="70C57ISuy-zKLvvFZMOv-26">
          <mxGeometry y="52" width="230" height="26" as="geometry" />
        </mxCell>
        <mxCell id="70C57ISuy-zKLvvFZMOv-29" value="+ beat_that: boolean" style="text;strokeColor=none;fillColor=none;align=left;verticalAlign=top;spacingLeft=4;spacingRight=4;overflow=hidden;rotatable=0;points=[[0,0.5],[1,0.5]];portConstraint=eastwest;" vertex="1" parent="70C57ISuy-zKLvvFZMOv-26">
          <mxGeometry y="78" width="230" height="26" as="geometry" />
        </mxCell>
        <mxCell id="70C57ISuy-zKLvvFZMOv-123" value="+ welcome: boolean" style="text;strokeColor=none;fillColor=none;align=left;verticalAlign=top;spacingLeft=4;spacingRight=4;overflow=hidden;rotatable=0;points=[[0,0.5],[1,0.5]];portConstraint=eastwest;" vertex="1" parent="70C57ISuy-zKLvvFZMOv-26">
          <mxGeometry y="104" width="230" height="26" as="geometry" />
        </mxCell>
        <mxCell id="70C57ISuy-zKLvvFZMOv-132" value="+ status: string" style="text;strokeColor=none;fillColor=none;align=left;verticalAlign=top;spacingLeft=4;spacingRight=4;overflow=hidden;rotatable=0;points=[[0,0.5],[1,0.5]];portConstraint=eastwest;" vertex="1" parent="70C57ISuy-zKLvvFZMOv-26">
          <mxGeometry y="130" width="230" height="26" as="geometry" />
        </mxCell>
        <mxCell id="70C57ISuy-zKLvvFZMOv-131" value="+ userUniqueName: string" style="text;strokeColor=none;fillColor=none;align=left;verticalAlign=top;spacingLeft=4;spacingRight=4;overflow=hidden;rotatable=0;points=[[0,0.5],[1,0.5]];portConstraint=eastwest;" vertex="1" parent="70C57ISuy-zKLvvFZMOv-26">
          <mxGeometry y="156" width="230" height="26" as="geometry" />
        </mxCell>
        <mxCell id="70C57ISuy-zKLvvFZMOv-133" value="+ kicktype: string" style="text;strokeColor=none;fillColor=none;align=left;verticalAlign=top;spacingLeft=4;spacingRight=4;overflow=hidden;rotatable=0;points=[[0,0.5],[1,0.5]];portConstraint=eastwest;" vertex="1" parent="70C57ISuy-zKLvvFZMOv-26">
          <mxGeometry y="182" width="230" height="26" as="geometry" />
        </mxCell>
        <mxCell id="70C57ISuy-zKLvvFZMOv-134" value="+ kickfoot: string" style="text;strokeColor=none;fillColor=none;align=left;verticalAlign=top;spacingLeft=4;spacingRight=4;overflow=hidden;rotatable=0;points=[[0,0.5],[1,0.5]];portConstraint=eastwest;" vertex="1" parent="70C57ISuy-zKLvvFZMOv-26">
          <mxGeometry y="208" width="230" height="26" as="geometry" />
        </mxCell>
        <mxCell id="70C57ISuy-zKLvvFZMOv-124" value="+ video_uri: array&lt;string&gt;" style="text;strokeColor=none;fillColor=none;align=left;verticalAlign=top;spacingLeft=4;spacingRight=4;overflow=hidden;rotatable=0;points=[[0,0.5],[1,0.5]];portConstraint=eastwest;" vertex="1" parent="70C57ISuy-zKLvvFZMOv-26">
          <mxGeometry y="234" width="230" height="26" as="geometry" />
        </mxCell>
        <mxCell id="70C57ISuy-zKLvvFZMOv-125" value="+ analysis: array&lt;Skill&gt;" style="text;strokeColor=none;fillColor=none;align=left;verticalAlign=top;spacingLeft=4;spacingRight=4;overflow=hidden;rotatable=0;points=[[0,0.5],[1,0.5]];portConstraint=eastwest;" vertex="1" parent="70C57ISuy-zKLvvFZMOv-26">
          <mxGeometry y="260" width="230" height="26" as="geometry" />
        </mxCell>
        <mxCell id="70C57ISuy-zKLvvFZMOv-126" value="+ analysisArray: array&lt;Analytics&gt;" style="text;strokeColor=none;fillColor=none;align=left;verticalAlign=top;spacingLeft=4;spacingRight=4;overflow=hidden;rotatable=0;points=[[0,0.5],[1,0.5]];portConstraint=eastwest;" vertex="1" parent="70C57ISuy-zKLvvFZMOv-26">
          <mxGeometry y="286" width="230" height="26" as="geometry" />
        </mxCell>
        <mxCell id="70C57ISuy-zKLvvFZMOv-127" value="+ chatComments: array&lt;Comment&gt;" style="text;strokeColor=none;fillColor=none;align=left;verticalAlign=top;spacingLeft=4;spacingRight=4;overflow=hidden;rotatable=0;points=[[0,0.5],[1,0.5]];portConstraint=eastwest;" vertex="1" parent="70C57ISuy-zKLvvFZMOv-26">
          <mxGeometry y="312" width="230" height="26" as="geometry" />
        </mxCell>
        <mxCell id="70C57ISuy-zKLvvFZMOv-128" value="+ chatBadges: array&lt;Badge&gt;" style="text;strokeColor=none;fillColor=none;align=left;verticalAlign=top;spacingLeft=4;spacingRight=4;overflow=hidden;rotatable=0;points=[[0,0.5],[1,0.5]];portConstraint=eastwest;" vertex="1" parent="70C57ISuy-zKLvvFZMOv-26">
          <mxGeometry y="338" width="230" height="26" as="geometry" />
        </mxCell>
        <mxCell id="70C57ISuy-zKLvvFZMOv-129" value="+ uniqueNameRecord: array&lt;string&gt;" style="text;strokeColor=none;fillColor=none;align=left;verticalAlign=top;spacingLeft=4;spacingRight=4;overflow=hidden;rotatable=0;points=[[0,0.5],[1,0.5]];portConstraint=eastwest;" vertex="1" parent="70C57ISuy-zKLvvFZMOv-26">
          <mxGeometry y="364" width="230" height="26" as="geometry" />
        </mxCell>
        <mxCell id="70C57ISuy-zKLvvFZMOv-130" value="+ history: array&lt;Analytics&gt;" style="text;strokeColor=none;fillColor=none;align=left;verticalAlign=top;spacingLeft=4;spacingRight=4;overflow=hidden;rotatable=0;points=[[0,0.5],[1,0.5]];portConstraint=eastwest;" vertex="1" parent="70C57ISuy-zKLvvFZMOv-26">
          <mxGeometry y="390" width="230" height="26" as="geometry" />
        </mxCell>
        <mxCell id="70C57ISuy-zKLvvFZMOv-43" value="RCC" style="swimlane;fontStyle=0;childLayout=stackLayout;horizontal=1;startSize=26;fillColor=none;horizontalStack=0;resizeParent=1;resizeParentMax=0;resizeLast=0;collapsible=1;marginBottom=0;" vertex="1" parent="1">
          <mxGeometry x="80" y="830" width="210" height="130" as="geometry" />
        </mxCell>
        <mxCell id="70C57ISuy-zKLvvFZMOv-45" value="+ code: string" style="text;strokeColor=none;fillColor=none;align=left;verticalAlign=top;spacingLeft=4;spacingRight=4;overflow=hidden;rotatable=0;points=[[0,0.5],[1,0.5]];portConstraint=eastwest;" vertex="1" parent="70C57ISuy-zKLvvFZMOv-43">
          <mxGeometry y="26" width="210" height="26" as="geometry" />
        </mxCell>
        <mxCell id="70C57ISuy-zKLvvFZMOv-116" value="+ fullName: string" style="text;strokeColor=none;fillColor=none;align=left;verticalAlign=top;spacingLeft=4;spacingRight=4;overflow=hidden;rotatable=0;points=[[0,0.5],[1,0.5]];portConstraint=eastwest;" vertex="1" parent="70C57ISuy-zKLvvFZMOv-43">
          <mxGeometry y="52" width="210" height="26" as="geometry" />
        </mxCell>
        <mxCell id="70C57ISuy-zKLvvFZMOv-117" value="+ team: string" style="text;strokeColor=none;fillColor=none;align=left;verticalAlign=top;spacingLeft=4;spacingRight=4;overflow=hidden;rotatable=0;points=[[0,0.5],[1,0.5]];portConstraint=eastwest;" vertex="1" parent="70C57ISuy-zKLvvFZMOv-43">
          <mxGeometry y="78" width="210" height="26" as="geometry" />
        </mxCell>
        <mxCell id="70C57ISuy-zKLvvFZMOv-118" value="+ year: string" style="text;strokeColor=none;fillColor=none;align=left;verticalAlign=top;spacingLeft=4;spacingRight=4;overflow=hidden;rotatable=0;points=[[0,0.5],[1,0.5]];portConstraint=eastwest;" vertex="1" parent="70C57ISuy-zKLvvFZMOv-43">
          <mxGeometry y="104" width="210" height="26" as="geometry" />
        </mxCell>
        <mxCell id="70C57ISuy-zKLvvFZMOv-54" style="edgeStyle=orthogonalEdgeStyle;rounded=0;orthogonalLoop=1;jettySize=auto;html=1;exitX=0.5;exitY=1;exitDx=0;exitDy=0;" edge="1" parent="1" source="70C57ISuy-zKLvvFZMOv-18" target="70C57ISuy-zKLvvFZMOv-18">
          <mxGeometry relative="1" as="geometry" />
        </mxCell>
        <mxCell id="70C57ISuy-zKLvvFZMOv-55" value="&lt;div style=&quot;font-size: 14px;&quot;&gt;Suggestions for architecture in the future.&lt;/div&gt;&lt;ul style=&quot;&quot;&gt;&lt;li style=&quot;font-size: 14px;&quot;&gt;Make node.js server redundant and migrate all APIs of node.js server to Nest.&lt;br style=&quot;font-size: 14px;&quot;&gt;&lt;/li&gt;&lt;ol&gt;&lt;li style=&quot;font-size: 14px;&quot;&gt;This will enable the team to fully get rid of writing and maintaining legacy code.&lt;br&gt;&lt;/li&gt;&lt;li style=&quot;font-size: 14px;&quot;&gt;Team will only need to manage one server.&lt;br&gt;&lt;br&gt;&lt;/li&gt;&lt;/ol&gt;&lt;li style=&quot;font-size: 14px;&quot;&gt;Make MongoDB redundant and migrate to Neo4J completely.&lt;br&gt;This can have complications as both AI and MERN teams will need to work on this, therefore I would suggest caution and proper planning before undertaking this.&lt;/li&gt;&lt;ol&gt;&lt;li style=&quot;font-size: 14px;&quot;&gt;Unified data source, the reason to make mongodb redundant instead of neo4j is mainly due to relation between users among themselves and users with clubs. As a graph database beautifully handles social aspect, i.e. connections between users and memberships with users and clubs. Whereas, managing this in mongodb would not be efficient and is not scalable.&lt;/li&gt;&lt;li style=&quot;font-size: 14px;&quot;&gt;Neo4j will be able to handle the current architecture of mongodb as it also provides data storage within nodes.&lt;br&gt;&lt;br&gt;&lt;/li&gt;&lt;/ol&gt;&lt;li&gt;&lt;span style=&quot;background-color: initial;&quot;&gt;Make analytics real-time.&lt;/span&gt;&lt;/li&gt;&lt;ol&gt;&lt;li&gt;&lt;span style=&quot;background-color: initial;&quot;&gt;This will improve overall user experience. &lt;br&gt;One approach that was researched upon was making mongodb&#39;s analytics collection real-time; using this approach would automatically update the frontend whenever an update occurs in the analytics collection. Needless to say, this also should be planned with great care.&lt;br&gt;&lt;br&gt;&lt;/span&gt;&lt;/li&gt;&lt;/ol&gt;&lt;li style=&quot;font-size: 14px;&quot;&gt;Migrate from react-native-camera to react-native-vision-camera.&lt;br&gt;&lt;/li&gt;&lt;ol&gt;&lt;li style=&quot;font-size: 14px;&quot;&gt;react-native-camera is deprecated therefore this should be a reason in itself to update to the latest library for camera, react-native-vision-camera is the official replacement for this library.&lt;/li&gt;&lt;li style=&quot;font-size: 14px;&quot;&gt;The zoom problem with camera may be solved.&lt;/li&gt;&lt;li style=&quot;font-size: 14px;&quot;&gt;The pause and play functionality while recording may be solved.&lt;/li&gt;&lt;/ol&gt;&lt;/ul&gt;" style="rounded=0;whiteSpace=wrap;html=1;align=left;verticalAlign=top;spacing=10;spacingLeft=10;spacingRight=10;fontSize=14;" vertex="1" parent="1">
          <mxGeometry x="-825" y="29" width="800" height="481" as="geometry" />
        </mxCell>
        <mxCell id="70C57ISuy-zKLvvFZMOv-58" value="&lt;b&gt;Solution&#39;s Architecture&lt;/b&gt;" style="text;html=1;strokeColor=none;fillColor=none;align=left;verticalAlign=middle;whiteSpace=wrap;rounded=0;" vertex="1" parent="1">
          <mxGeometry x="34" y="29" width="240" height="30" as="geometry" />
        </mxCell>
        <mxCell id="70C57ISuy-zKLvvFZMOv-111" style="edgeStyle=orthogonalEdgeStyle;rounded=0;orthogonalLoop=1;jettySize=auto;html=1;startArrow=none;startFill=0;" edge="1" parent="1" source="70C57ISuy-zKLvvFZMOv-70" target="70C57ISuy-zKLvvFZMOv-89">
          <mxGeometry relative="1" as="geometry" />
        </mxCell>
        <mxCell id="70C57ISuy-zKLvvFZMOv-70" value="AWS S3" style="outlineConnect=0;dashed=0;verticalLabelPosition=bottom;verticalAlign=top;align=center;html=1;shape=mxgraph.aws3.s3;fillColor=#E05243;gradientColor=none;aspect=fixed;" vertex="1" parent="1">
          <mxGeometry x="300" y="84.19" width="49" height="59.62" as="geometry" />
        </mxCell>
        <mxCell id="70C57ISuy-zKLvvFZMOv-71" value="" style="group;verticalAlign=middle;labelPosition=right;verticalLabelPosition=bottom;align=left;horizontal=1;spacingTop=7;textDirection=rtl;" vertex="1" connectable="0" parent="1">
          <mxGeometry x="725" y="204.00000000000003" width="60" height="60" as="geometry" />
        </mxCell>
        <mxCell id="70C57ISuy-zKLvvFZMOv-72" value="MongoDB" style="strokeWidth=2;html=1;shape=mxgraph.flowchart.database;whiteSpace=wrap;fillColor=none;" vertex="1" parent="70C57ISuy-zKLvvFZMOv-71">
          <mxGeometry width="60" height="60" as="geometry" />
        </mxCell>
        <mxCell id="70C57ISuy-zKLvvFZMOv-74" value="&lt;font color=&quot;#000000&quot;&gt;Email Notifications&lt;/font&gt;" style="sketch=0;outlineConnect=0;fontColor=#232F3E;gradientColor=none;fillColor=#B0084D;strokeColor=none;dashed=0;verticalLabelPosition=bottom;verticalAlign=top;align=center;html=1;fontSize=12;fontStyle=0;aspect=fixed;pointerEvents=1;shape=mxgraph.aws4.email_notification;" vertex="1" parent="1">
          <mxGeometry x="295" y="438.5" width="53" height="53" as="geometry" />
        </mxCell>
        <mxCell id="70C57ISuy-zKLvvFZMOv-99" style="edgeStyle=orthogonalEdgeStyle;rounded=0;orthogonalLoop=1;jettySize=auto;html=1;" edge="1" parent="1" source="70C57ISuy-zKLvvFZMOv-81" target="70C57ISuy-zKLvvFZMOv-89">
          <mxGeometry relative="1" as="geometry">
            <Array as="points">
              <mxPoint x="138" y="330" />
            </Array>
          </mxGeometry>
        </mxCell>
        <mxCell id="70C57ISuy-zKLvvFZMOv-81" value="&lt;font style=&quot;font-size: 12px;&quot;&gt;Push&amp;nbsp;Notifications&lt;/font&gt;" style="sketch=0;pointerEvents=1;shadow=0;dashed=0;html=1;strokeColor=none;fillColor=#505050;labelPosition=center;verticalLabelPosition=bottom;verticalAlign=top;outlineConnect=0;align=center;shape=mxgraph.office.communications.sms_gateway;fontSize=14;" vertex="1" parent="1">
          <mxGeometry x="295" y="310" width="59" height="47" as="geometry" />
        </mxCell>
        <mxCell id="70C57ISuy-zKLvvFZMOv-82" value="" style="group" vertex="1" connectable="0" parent="1">
          <mxGeometry x="465" y="200" width="147" height="68" as="geometry" />
        </mxCell>
        <mxCell id="70C57ISuy-zKLvvFZMOv-83" value="" style="rounded=0;whiteSpace=wrap;html=1;fillColor=none;" vertex="1" parent="70C57ISuy-zKLvvFZMOv-82">
          <mxGeometry width="147" height="68" as="geometry" />
        </mxCell>
        <mxCell id="70C57ISuy-zKLvvFZMOv-84" value="Nest Backend" style="shape=image;html=1;verticalAlign=top;verticalLabelPosition=bottom;labelBackgroundColor=#ffffff;imageAspect=0;aspect=fixed;image=https://cdn1.iconfinder.com/data/icons/science-technology-outline-24-px/24/Computer_chip_integrated_circuit_memory_chip_microprocessor_processor_chip-128.png;fillColor=none;" vertex="1" parent="70C57ISuy-zKLvvFZMOv-82">
          <mxGeometry x="53.30769230769231" y="5.95" width="39.464285714285715" height="39.464285714285715" as="geometry" />
        </mxCell>
        <mxCell id="70C57ISuy-zKLvvFZMOv-85" value="" style="group" vertex="1" connectable="0" parent="1">
          <mxGeometry x="465" y="80" width="147" height="68" as="geometry" />
        </mxCell>
        <mxCell id="70C57ISuy-zKLvvFZMOv-86" value="" style="rounded=0;whiteSpace=wrap;html=1;fillColor=none;" vertex="1" parent="70C57ISuy-zKLvvFZMOv-85">
          <mxGeometry width="147" height="68" as="geometry" />
        </mxCell>
        <mxCell id="70C57ISuy-zKLvvFZMOv-87" value="Python Backend" style="shape=image;html=1;verticalAlign=top;verticalLabelPosition=bottom;labelBackgroundColor=#ffffff;imageAspect=0;aspect=fixed;image=https://cdn1.iconfinder.com/data/icons/science-technology-outline-24-px/24/Computer_chip_integrated_circuit_memory_chip_microprocessor_processor_chip-128.png;fillColor=none;" vertex="1" parent="70C57ISuy-zKLvvFZMOv-85">
          <mxGeometry x="53.30769230769231" y="5.95" width="39.464285714285715" height="39.464285714285715" as="geometry" />
        </mxCell>
        <mxCell id="70C57ISuy-zKLvvFZMOv-88" value="" style="group" vertex="1" connectable="0" parent="1">
          <mxGeometry x="65.00000000000003" y="200" width="147" height="68" as="geometry" />
        </mxCell>
        <mxCell id="70C57ISuy-zKLvvFZMOv-89" value="" style="rounded=0;whiteSpace=wrap;html=1;fillColor=none;" vertex="1" parent="70C57ISuy-zKLvvFZMOv-88">
          <mxGeometry width="147" height="68" as="geometry" />
        </mxCell>
        <mxCell id="70C57ISuy-zKLvvFZMOv-90" value="Mobile App" style="shape=image;html=1;verticalAlign=top;verticalLabelPosition=bottom;labelBackgroundColor=#ffffff;imageAspect=0;aspect=fixed;image=https://cdn1.iconfinder.com/data/icons/ionicons-fill-vol-2/512/logo-react-128.png;fillColor=none;labelPosition=center;align=center;" vertex="1" parent="70C57ISuy-zKLvvFZMOv-88">
          <mxGeometry x="55" y="6.689999999999998" width="37" height="37" as="geometry" />
        </mxCell>
        <mxCell id="70C57ISuy-zKLvvFZMOv-105" value="" style="group" vertex="1" connectable="0" parent="1">
          <mxGeometry x="426" y="300" width="225" height="340" as="geometry" />
        </mxCell>
        <mxCell id="70C57ISuy-zKLvvFZMOv-101" value="Legacy Server" style="rounded=0;whiteSpace=wrap;html=1;verticalAlign=bottom;spacingBottom=10;" vertex="1" parent="70C57ISuy-zKLvvFZMOv-105">
          <mxGeometry width="225" height="340" as="geometry" />
        </mxCell>
        <mxCell id="70C57ISuy-zKLvvFZMOv-91" value="" style="group" vertex="1" connectable="0" parent="70C57ISuy-zKLvvFZMOv-105">
          <mxGeometry x="39" y="21.5" width="147" height="68" as="geometry" />
        </mxCell>
        <mxCell id="70C57ISuy-zKLvvFZMOv-92" value="" style="rounded=0;whiteSpace=wrap;html=1;fillColor=none;" vertex="1" parent="70C57ISuy-zKLvvFZMOv-91">
          <mxGeometry width="147" height="68" as="geometry" />
        </mxCell>
        <mxCell id="70C57ISuy-zKLvvFZMOv-93" value="Admin App" style="shape=image;html=1;verticalAlign=top;verticalLabelPosition=bottom;labelBackgroundColor=#ffffff;imageAspect=0;aspect=fixed;image=https://cdn1.iconfinder.com/data/icons/ionicons-fill-vol-2/512/logo-react-128.png;fillColor=none;labelPosition=center;align=center;" vertex="1" parent="70C57ISuy-zKLvvFZMOv-91">
          <mxGeometry x="55" y="6.689999999999998" width="37" height="37" as="geometry" />
        </mxCell>
        <mxCell id="70C57ISuy-zKLvvFZMOv-94" value="" style="group" vertex="1" connectable="0" parent="70C57ISuy-zKLvvFZMOv-105">
          <mxGeometry x="39" y="131" width="147" height="68" as="geometry" />
        </mxCell>
        <mxCell id="70C57ISuy-zKLvvFZMOv-95" value="" style="rounded=0;whiteSpace=wrap;html=1;fillColor=none;" vertex="1" parent="70C57ISuy-zKLvvFZMOv-94">
          <mxGeometry width="147" height="68" as="geometry" />
        </mxCell>
        <mxCell id="70C57ISuy-zKLvvFZMOv-96" value="Node Backend" style="shape=image;html=1;verticalAlign=top;verticalLabelPosition=bottom;labelBackgroundColor=#ffffff;imageAspect=0;aspect=fixed;image=https://cdn1.iconfinder.com/data/icons/science-technology-outline-24-px/24/Computer_chip_integrated_circuit_memory_chip_microprocessor_processor_chip-128.png;fillColor=none;" vertex="1" parent="70C57ISuy-zKLvvFZMOv-94">
          <mxGeometry x="53.30769230769231" y="5.95" width="39.464285714285715" height="39.464285714285715" as="geometry" />
        </mxCell>
        <mxCell id="70C57ISuy-zKLvvFZMOv-97" value="" style="group;verticalAlign=middle;labelPosition=right;verticalLabelPosition=bottom;align=left;horizontal=1;spacingTop=7;textDirection=rtl;" vertex="1" connectable="0" parent="70C57ISuy-zKLvvFZMOv-105">
          <mxGeometry x="82.5" y="240.00000000000006" width="60" height="60" as="geometry" />
        </mxCell>
        <mxCell id="70C57ISuy-zKLvvFZMOv-98" value="Neo4J" style="strokeWidth=2;html=1;shape=mxgraph.flowchart.database;whiteSpace=wrap;fillColor=none;" vertex="1" parent="70C57ISuy-zKLvvFZMOv-97">
          <mxGeometry width="60" height="60" as="geometry" />
        </mxCell>
        <mxCell id="70C57ISuy-zKLvvFZMOv-102" style="edgeStyle=orthogonalEdgeStyle;rounded=0;orthogonalLoop=1;jettySize=auto;html=1;startArrow=classic;startFill=1;" edge="1" parent="70C57ISuy-zKLvvFZMOv-105" source="70C57ISuy-zKLvvFZMOv-95" target="70C57ISuy-zKLvvFZMOv-98">
          <mxGeometry relative="1" as="geometry" />
        </mxCell>
        <mxCell id="70C57ISuy-zKLvvFZMOv-104" style="edgeStyle=orthogonalEdgeStyle;rounded=0;orthogonalLoop=1;jettySize=auto;html=1;startArrow=classic;startFill=1;" edge="1" parent="70C57ISuy-zKLvvFZMOv-105" source="70C57ISuy-zKLvvFZMOv-95" target="70C57ISuy-zKLvvFZMOv-92">
          <mxGeometry relative="1" as="geometry" />
        </mxCell>
        <mxCell id="70C57ISuy-zKLvvFZMOv-106" style="edgeStyle=orthogonalEdgeStyle;rounded=0;orthogonalLoop=1;jettySize=auto;html=1;startArrow=classic;startFill=1;" edge="1" parent="1" source="70C57ISuy-zKLvvFZMOv-95" target="70C57ISuy-zKLvvFZMOv-72">
          <mxGeometry relative="1" as="geometry" />
        </mxCell>
        <mxCell id="70C57ISuy-zKLvvFZMOv-107" style="edgeStyle=orthogonalEdgeStyle;rounded=0;orthogonalLoop=1;jettySize=auto;html=1;startArrow=classic;startFill=1;" edge="1" parent="1" source="70C57ISuy-zKLvvFZMOv-83" target="70C57ISuy-zKLvvFZMOv-72">
          <mxGeometry relative="1" as="geometry" />
        </mxCell>
        <mxCell id="70C57ISuy-zKLvvFZMOv-108" style="edgeStyle=orthogonalEdgeStyle;rounded=0;orthogonalLoop=1;jettySize=auto;html=1;startArrow=none;startFill=0;" edge="1" parent="1" source="70C57ISuy-zKLvvFZMOv-83" target="70C57ISuy-zKLvvFZMOv-70">
          <mxGeometry relative="1" as="geometry">
            <Array as="points">
              <mxPoint x="325" y="220" />
            </Array>
          </mxGeometry>
        </mxCell>
        <mxCell id="70C57ISuy-zKLvvFZMOv-109" style="edgeStyle=orthogonalEdgeStyle;rounded=0;orthogonalLoop=1;jettySize=auto;html=1;startArrow=none;startFill=0;" edge="1" parent="1" source="70C57ISuy-zKLvvFZMOv-86" target="70C57ISuy-zKLvvFZMOv-70">
          <mxGeometry relative="1" as="geometry" />
        </mxCell>
        <mxCell id="70C57ISuy-zKLvvFZMOv-110" style="edgeStyle=orthogonalEdgeStyle;rounded=0;orthogonalLoop=1;jettySize=auto;html=1;startArrow=classic;startFill=1;" edge="1" parent="1" source="70C57ISuy-zKLvvFZMOv-86" target="70C57ISuy-zKLvvFZMOv-72">
          <mxGeometry relative="1" as="geometry" />
        </mxCell>
        <mxCell id="70C57ISuy-zKLvvFZMOv-112" style="edgeStyle=orthogonalEdgeStyle;rounded=0;orthogonalLoop=1;jettySize=auto;html=1;startArrow=none;startFill=0;" edge="1" parent="1" source="70C57ISuy-zKLvvFZMOv-95" target="70C57ISuy-zKLvvFZMOv-74">
          <mxGeometry relative="1" as="geometry" />
        </mxCell>
        <mxCell id="70C57ISuy-zKLvvFZMOv-113" style="edgeStyle=orthogonalEdgeStyle;rounded=0;orthogonalLoop=1;jettySize=auto;html=1;startArrow=classic;startFill=1;" edge="1" parent="1" source="70C57ISuy-zKLvvFZMOv-86" target="70C57ISuy-zKLvvFZMOv-83">
          <mxGeometry relative="1" as="geometry" />
        </mxCell>
        <mxCell id="70C57ISuy-zKLvvFZMOv-114" style="edgeStyle=orthogonalEdgeStyle;rounded=0;orthogonalLoop=1;jettySize=auto;html=1;startArrow=none;startFill=0;" edge="1" parent="1" source="70C57ISuy-zKLvvFZMOv-83" target="70C57ISuy-zKLvvFZMOv-81">
          <mxGeometry relative="1" as="geometry">
            <Array as="points">
              <mxPoint x="325" y="250" />
            </Array>
          </mxGeometry>
        </mxCell>
        <mxCell id="70C57ISuy-zKLvvFZMOv-121" style="edgeStyle=orthogonalEdgeStyle;rounded=0;orthogonalLoop=1;jettySize=auto;html=1;startArrow=none;startFill=0;" edge="1" parent="1" source="70C57ISuy-zKLvvFZMOv-28" target="70C57ISuy-zKLvvFZMOv-4">
          <mxGeometry relative="1" as="geometry">
            <Array as="points">
              <mxPoint x="380" y="1375" />
              <mxPoint x="380" y="1280" />
              <mxPoint x="140" y="1280" />
            </Array>
          </mxGeometry>
        </mxCell>
        <mxCell id="70C57ISuy-zKLvvFZMOv-151" value="1 : n" style="edgeLabel;html=1;align=center;verticalAlign=middle;resizable=0;points=[];" vertex="1" connectable="0" parent="70C57ISuy-zKLvvFZMOv-121">
          <mxGeometry x="-0.1142" y="-2" relative="1" as="geometry">
            <mxPoint as="offset" />
          </mxGeometry>
        </mxCell>
        <mxCell id="70C57ISuy-zKLvvFZMOv-148" style="edgeStyle=orthogonalEdgeStyle;rounded=0;orthogonalLoop=1;jettySize=auto;html=1;startArrow=none;startFill=0;" edge="1" parent="1" source="70C57ISuy-zKLvvFZMOv-140" target="70C57ISuy-zKLvvFZMOv-4">
          <mxGeometry relative="1" as="geometry">
            <Array as="points">
              <mxPoint x="660" y="1250" />
              <mxPoint x="250" y="1250" />
            </Array>
          </mxGeometry>
        </mxCell>
        <mxCell id="70C57ISuy-zKLvvFZMOv-140" value="CONNECTION (m : n)" style="rounded=1;whiteSpace=wrap;html=1;strokeWidth=2;fillColor=none;" vertex="1" parent="1">
          <mxGeometry x="580" y="1160" width="160" height="44" as="geometry" />
        </mxCell>
        <mxCell id="70C57ISuy-zKLvvFZMOv-144" style="edgeStyle=orthogonalEdgeStyle;rounded=0;orthogonalLoop=1;jettySize=auto;html=1;startArrow=none;startFill=0;" edge="1" parent="1" source="70C57ISuy-zKLvvFZMOv-141" target="70C57ISuy-zKLvvFZMOv-4">
          <mxGeometry relative="1" as="geometry">
            <Array as="points">
              <mxPoint x="660" y="1020" />
              <mxPoint x="370" y="1020" />
              <mxPoint x="370" y="1060" />
            </Array>
          </mxGeometry>
        </mxCell>
        <mxCell id="70C57ISuy-zKLvvFZMOv-141" value="CONNECTION_REQUEST (m : n)" style="rounded=1;whiteSpace=wrap;html=1;strokeWidth=2;fillColor=none;" vertex="1" parent="1">
          <mxGeometry x="555" y="1040" width="210" height="50" as="geometry" />
        </mxCell>
        <mxCell id="70C57ISuy-zKLvvFZMOv-146" style="edgeStyle=orthogonalEdgeStyle;rounded=0;orthogonalLoop=1;jettySize=auto;html=1;startArrow=none;startFill=0;" edge="1" parent="1" source="70C57ISuy-zKLvvFZMOv-142" target="70C57ISuy-zKLvvFZMOv-43">
          <mxGeometry relative="1" as="geometry">
            <Array as="points">
              <mxPoint x="660" y="840" />
            </Array>
          </mxGeometry>
        </mxCell>
        <mxCell id="70C57ISuy-zKLvvFZMOv-142" value="MEMBER (m : n)" style="rounded=1;whiteSpace=wrap;html=1;strokeWidth=2;fillColor=none;" vertex="1" parent="1">
          <mxGeometry x="580" y="860" width="160" height="44" as="geometry" />
        </mxCell>
        <mxCell id="70C57ISuy-zKLvvFZMOv-149" value="Nodes" style="text;html=1;strokeColor=none;fillColor=none;align=center;verticalAlign=middle;whiteSpace=wrap;rounded=0;" vertex="1" parent="1">
          <mxGeometry x="165.34" y="798" width="60" height="30" as="geometry" />
        </mxCell>
        <mxCell id="70C57ISuy-zKLvvFZMOv-150" value="Vertices" style="text;html=1;strokeColor=none;fillColor=none;align=center;verticalAlign=middle;whiteSpace=wrap;rounded=0;" vertex="1" parent="1">
          <mxGeometry x="630" y="798" width="60" height="30" as="geometry" />
        </mxCell>
        <mxCell id="70C57ISuy-zKLvvFZMOv-152" value="api" style="rounded=1;whiteSpace=wrap;html=1;strokeWidth=2;fillColor=none;" vertex="1" parent="1">
          <mxGeometry x="-290" y="729" width="100" height="44" as="geometry" />
        </mxCell>
        <mxCell id="70C57ISuy-zKLvvFZMOv-153" value="messaging" style="rounded=1;whiteSpace=wrap;html=1;strokeWidth=2;fillColor=none;" vertex="1" parent="1">
          <mxGeometry x="-660" y="729.5" width="100" height="44" as="geometry" />
        </mxCell>
        <mxCell id="70C57ISuy-zKLvvFZMOv-154" value="notifications" style="rounded=1;whiteSpace=wrap;html=1;strokeWidth=2;fillColor=none;" vertex="1" parent="1">
          <mxGeometry x="-660" y="848.5" width="100" height="44" as="geometry" />
        </mxCell>
        <mxCell id="70C57ISuy-zKLvvFZMOv-155" value="admin" style="rounded=1;whiteSpace=wrap;html=1;strokeWidth=2;fillColor=none;" vertex="1" parent="1">
          <mxGeometry x="-660" y="788.5" width="100" height="44" as="geometry" />
        </mxCell>
        <mxCell id="70C57ISuy-zKLvvFZMOv-156" value="neo" style="rounded=1;whiteSpace=wrap;html=1;strokeWidth=2;fillColor=none;" vertex="1" parent="1">
          <mxGeometry x="-290" y="848" width="100" height="44" as="geometry" />
        </mxCell>
        <mxCell id="70C57ISuy-zKLvvFZMOv-158" value="app" style="rounded=1;whiteSpace=wrap;html=1;strokeWidth=2;fillColor=none;" vertex="1" parent="1">
          <mxGeometry x="-290" y="788" width="100" height="44" as="geometry" />
        </mxCell>
        <mxCell id="70C57ISuy-zKLvvFZMOv-159" value="&lt;b&gt;Legacy Server Modules&lt;/b&gt;" style="text;html=1;strokeColor=none;fillColor=none;align=left;verticalAlign=middle;whiteSpace=wrap;rounded=0;" vertex="1" parent="1">
          <mxGeometry x="-820" y="610" width="240" height="30" as="geometry" />
        </mxCell>
        <mxCell id="70C57ISuy-zKLvvFZMOv-162" value="In use" style="rounded=1;whiteSpace=wrap;html=1;dashed=1;strokeWidth=2;perimeterSpacing=1;arcSize=4;fillColor=#f8cecc;verticalAlign=top;spacingTop=7;strokeColor=none;opacity=40;" vertex="1" parent="1">
          <mxGeometry x="-390" y="1050" width="300" height="248" as="geometry" />
        </mxCell>
        <mxCell id="70C57ISuy-zKLvvFZMOv-163" value="Abandoned" style="rounded=1;whiteSpace=wrap;html=1;dashed=1;strokeWidth=2;perimeterSpacing=1;arcSize=4;fillColor=#dae8fc;verticalAlign=top;spacingTop=7;strokeColor=none;opacity=40;" vertex="1" parent="1">
          <mxGeometry x="-760" y="1050" width="300" height="248" as="geometry" />
        </mxCell>
        <mxCell id="70C57ISuy-zKLvvFZMOv-164" value="analytics" style="rounded=1;whiteSpace=wrap;html=1;strokeWidth=2;fillColor=none;" vertex="1" parent="1">
          <mxGeometry x="-290" y="1109" width="100" height="44" as="geometry" />
        </mxCell>
        <mxCell id="70C57ISuy-zKLvvFZMOv-165" value="auth" style="rounded=1;whiteSpace=wrap;html=1;strokeWidth=2;fillColor=none;" vertex="1" parent="1">
          <mxGeometry x="-660" y="1109.5" width="100" height="44" as="geometry" />
        </mxCell>
        <mxCell id="70C57ISuy-zKLvvFZMOv-166" value="usersdata" style="rounded=1;whiteSpace=wrap;html=1;strokeWidth=2;fillColor=none;" vertex="1" parent="1">
          <mxGeometry x="-660" y="1228.5" width="100" height="44" as="geometry" />
        </mxCell>
        <mxCell id="70C57ISuy-zKLvvFZMOv-167" value="products" style="rounded=1;whiteSpace=wrap;html=1;strokeWidth=2;fillColor=none;" vertex="1" parent="1">
          <mxGeometry x="-660" y="1168.5" width="100" height="44" as="geometry" />
        </mxCell>
        <mxCell id="70C57ISuy-zKLvvFZMOv-168" value="nodemailer" style="rounded=1;whiteSpace=wrap;html=1;strokeWidth=2;fillColor=none;" vertex="1" parent="1">
          <mxGeometry x="-290" y="1228" width="100" height="44" as="geometry" />
        </mxCell>
        <mxCell id="70C57ISuy-zKLvvFZMOv-169" value="users" style="rounded=1;whiteSpace=wrap;html=1;strokeWidth=2;fillColor=none;" vertex="1" parent="1">
          <mxGeometry x="-290" y="1168" width="100" height="44" as="geometry" />
        </mxCell>
        <mxCell id="70C57ISuy-zKLvvFZMOv-170" value="&lt;b&gt;Nest Server Modules&lt;/b&gt;" style="text;html=1;strokeColor=none;fillColor=none;align=left;verticalAlign=middle;whiteSpace=wrap;rounded=0;" vertex="1" parent="1">
          <mxGeometry x="-820" y="990" width="240" height="30" as="geometry" />
        </mxCell>
      </root>
    </mxGraphModel>
  </diagram>
</mxfile>
